<?xml version="1.0" encoding="UTF-8"?>
<svg xmlns="http://www.w3.org/2000/svg" xmlns:xlink="http://www.w3.org/1999/xlink" width="283.6pt" height="283.7pt" viewBox="0 0 283.6 283.7" version="1.1">
<defs>
<clipPath id="clip1">
  <path d="M 0 0 L 283.601563 0 L 283.601563 283.699219 L 0 283.699219 Z M 0 0 "/>
</clipPath>
</defs>
<g id="surface1">
<path style=" stroke:none;fill-rule:evenodd;fill:rgb(0%,41.184998%,65.818787%);fill-opacity:1;" d="M 19.789063 235.511719 L 60.207031 48.128906 L 263.941406 48.128906 L 223.523438 235.511719 Z M 19.789063 235.511719 "/>
<path style=" stroke:none;fill-rule:evenodd;fill:rgb(100%,100%,100%);fill-opacity:1;" d="M 27.066406 229.636719 L 218.785156 229.636719 L 256.664063 54.003906 L 64.949219 54.003906 Z M 27.066406 229.636719 "/>
<path style=" stroke:none;fill-rule:evenodd;fill:rgb(4.704285%,67.381287%,85.15625%);fill-opacity:1;" d="M 55.542969 217.753906 L 109.257813 217.753906 C 116.621094 217.753906 123.980469 212.488281 127.113281 205.46875 C 127.210938 212.488281 132.371094 217.753906 139.867188 217.753906 L 194.472656 217.753906 C 203.203125 217.753906 211.914063 210.605469 213.835938 201.867188 L 244.070313 65.886719 L 199.3125 65.886719 L 185.746094 128.96875 C 184.644531 134.109375 179.535156 138.316406 174.394531 138.316406 C 169.253906 138.316406 165.953125 134.109375 167.058594 128.96875 L 180.621094 65.886719 L 136.230469 65.886719 L 122.664063 128.96875 C 121.5625 134.109375 116.453125 138.316406 111.3125 138.316406 C 106.171875 138.316406 102.871094 134.109375 103.976563 128.96875 L 117.539063 65.886719 L 73.199219 65.886719 L 43.371094 201.867188 C 41.484375 210.605469 46.960938 217.753906 55.542969 217.753906 Z M 55.542969 217.753906 "/>
<path style=" stroke:none;fill-rule:evenodd;fill:rgb(100%,100%,100%);fill-opacity:1;" d="M 100.746094 155.765625 L 91.976563 155.765625 L 88.289063 165.203125 C 87.84375 166.382813 87.238281 168.078125 86.609375 170.253906 L 86.554688 155.765625 L 79.910156 155.765625 L 74.121094 170.402344 C 74.230469 169.480469 74.3125 168.558594 74.363281 167.5625 C 74.417969 166.417969 74.417969 165.203125 74.457031 163.914063 L 74.589844 155.765625 L 66.554688 155.765625 L 67.027344 182.125 L 75.347656 182.125 L 79.320313 172.722656 C 80.023438 171.027344 80.59375 169.332031 81.070313 167.597656 L 81.089844 182.125 L 89.511719 182.125 Z M 118.0625 182.125 L 116.429688 155.765625 L 107.300781 155.765625 L 93.894531 182.125 L 102.898438 182.125 L 104.339844 178.621094 L 109.886719 178.621094 L 109.867188 182.125 Z M 109.886719 172.390625 L 106.953125 172.390625 L 108.789063 168.003906 C 109.089844 167.265625 109.574219 165.976563 110.152344 164.207031 C 110.085938 164.871094 110.050781 165.496094 110.023438 166.050781 C 109.949219 167.453125 109.953125 168.628906 109.9375 169.550781 Z M 136.546875 174.011719 L 129.449219 174.011719 L 133.363281 155.765625 L 124.847656 155.765625 L 119.222656 182.125 L 134.804688 182.125 Z M 159.863281 162.953125 C 160.105469 158.308594 156.945313 155.765625 150.496094 155.765625 L 142.558594 155.765625 L 136.933594 182.125 L 148.382813 182.125 C 154.835938 182.125 158.558594 178.804688 158.808594 173.976563 C 158.953125 171.136719 157.414063 169.074219 154.636719 168.59375 C 157.882813 168.1875 159.695313 166.199219 159.863281 162.953125 Z M 152.015625 163.726563 C 151.949219 165.019531 150.890625 165.535156 148.824219 165.535156 C 148.695313 165.535156 148.566406 165.535156 148.40625 165.535156 L 149.128906 162.179688 L 150.226563 162.179688 C 151.414063 162.179688 152.066406 162.769531 152.015625 163.726563 Z M 150.671875 173.496094 C 150.578125 175.230469 149.394531 175.710938 146.8125 175.710938 C 146.621094 175.710938 146.425781 175.710938 146.234375 175.710938 L 147.085938 171.691406 L 148.378906 171.691406 C 149.988281 171.691406 150.738281 172.207031 150.671875 173.496094 Z M 183.761719 163.691406 C 184.027344 158.566406 180.753906 155.765625 174.011719 155.765625 L 165.140625 155.765625 L 159.515625 182.125 L 167.835938 182.125 L 169.882813 172.539063 L 171.902344 182.125 L 180.449219 182.125 L 177.652344 171.984375 C 181.3125 171.101563 183.535156 168.078125 183.761719 163.691406 Z M 175.425781 164.539063 C 175.320313 166.566406 174.078125 167.453125 171.566406 167.453125 C 171.371094 167.453125 171.148438 167.453125 170.953125 167.453125 L 172.058594 162.328125 C 172.21875 162.328125 172.378906 162.328125 172.539063 162.328125 C 174.605469 162.328125 175.507813 162.992188 175.425781 164.539063 Z M 210.53125 167.488281 C 210.910156 160.261719 206.5625 155.136719 199.527344 155.136719 C 195.398438 155.136719 191.65625 157.019531 189.035156 160.300781 C 186.789063 163.101563 185.550781 166.53125 185.34375 170.472656 C 185.152344 174.160156 186.300781 177.550781 188.382813 179.726563 C 190.371094 181.792969 192.996094 182.832031 196.316406 182.832031 C 200.511719 182.832031 204.152344 181.019531 206.84375 177.664063 C 209.085938 174.898438 210.328125 171.394531 210.53125 167.488281 Z M 202.164063 168.371094 C 201.996094 171.507813 199.898438 174.085938 197.289063 174.085938 C 194.933594 174.085938 193.539063 172.242188 193.6875 169.480469 C 193.851563 166.34375 195.910156 163.914063 198.558594 163.914063 C 200.746094 163.914063 202.300781 165.71875 202.164063 168.371094 Z M 202.164063 168.371094 "/>
<g clip-path="url(#clip1)" clip-rule="nonzero">
<path style="fill:none;stroke-width:2;stroke-linecap:butt;stroke-linejoin:miter;stroke:rgb(0%,0%,0%);stroke-opacity:1;stroke-miterlimit:4;" d="M 1.328125 1.492188 L 2835.976563 1.492188 L 2835.976563 2836.140625 L 1.328125 2836.140625 Z M 1.328125 1.492188 " transform="matrix(0.1,0,0,-0.1,0,283.7)"/>
</g>
</g>
</svg>
